<svg width="29" height="28" viewBox="0 0 29 28" fill="none" xmlns="http://www.w3.org/2000/svg">
<mask id="mask0_305_687" style="mask-type:alpha" maskUnits="userSpaceOnUse" x="0" y="0" width="29" height="28">
<rect x="0.9375" width="28" height="28" fill="#D9D9D9"/>
</mask>
<g mask="url(#mask0_305_687)">
<path d="M14.9377 19.8335C15.2682 19.8335 15.5453 19.7217 15.7689 19.4981C15.9925 19.2745 16.1043 18.9974 16.1043 18.6668C16.1043 18.3363 15.9925 18.0592 15.7689 17.8356C15.5453 17.612 15.2682 17.5002 14.9377 17.5002C14.6071 17.5002 14.33 17.612 14.1064 17.8356C13.8828 18.0592 13.771 18.3363 13.771 18.6668C13.771 18.9974 13.8828 19.2745 14.1064 19.4981C14.33 19.7217 14.6071 19.8335 14.9377 19.8335ZM13.771 15.1668H16.1043V8.16683H13.771V15.1668ZM14.9377 25.6668C13.3238 25.6668 11.8071 25.3606 10.3877 24.7481C8.96822 24.1356 7.7335 23.3043 6.6835 22.2543C5.6335 21.2043 4.80225 19.9696 4.18975 18.5502C3.57725 17.1307 3.271 15.6141 3.271 14.0002C3.271 12.3863 3.57725 10.8696 4.18975 9.45016C4.80225 8.03072 5.6335 6.796 6.6835 5.746C7.7335 4.696 8.96822 3.86475 10.3877 3.25225C11.8071 2.63975 13.3238 2.3335 14.9377 2.3335C16.5516 2.3335 18.0682 2.63975 19.4877 3.25225C20.9071 3.86475 22.1418 4.696 23.1918 5.746C24.2418 6.796 25.0731 8.03072 25.6856 9.45016C26.2981 10.8696 26.6043 12.3863 26.6043 14.0002C26.6043 15.6141 26.2981 17.1307 25.6856 18.5502C25.0731 19.9696 24.2418 21.2043 23.1918 22.2543C22.1418 23.3043 20.9071 24.1356 19.4877 24.7481C18.0682 25.3606 16.5516 25.6668 14.9377 25.6668ZM14.9377 23.3335C17.5432 23.3335 19.7502 22.4293 21.5585 20.621C23.3668 18.8127 24.271 16.6057 24.271 14.0002C24.271 11.3946 23.3668 9.18766 21.5585 7.37933C19.7502 5.571 17.5432 4.66683 14.9377 4.66683C12.3321 4.66683 10.1252 5.571 8.31683 7.37933C6.5085 9.18766 5.60433 11.3946 5.60433 14.0002C5.60433 16.6057 6.5085 18.8127 8.31683 20.621C10.1252 22.4293 12.3321 23.3335 14.9377 23.3335Z" fill="#4C4C4C"/>
</g>
</svg>
