<svg width="28" height="28" viewBox="0 0 28 28" fill="none" xmlns="http://www.w3.org/2000/svg">
<mask id="mask0_305_590" style="mask-type:alpha" maskUnits="userSpaceOnUse" x="0" y="0" width="28" height="28">
<rect width="28" height="28" fill="#D9D9D9"/>
</mask>
<g mask="url(#mask0_305_590)">
<path d="M22.4779 13.8596C22.4129 11.5329 21.572 9.56093 19.955 7.94373C18.3378 6.32654 16.3657 5.48556 14.0388 5.42081V3.47627C15.4582 3.50233 16.7918 3.79244 18.0396 4.3466C19.2873 4.90077 20.3794 5.64608 21.3159 6.58252C22.2525 7.51916 22.9979 8.61135 23.5521 9.8591C24.1063 11.1067 24.3963 12.4402 24.4221 13.8596H22.4779ZM17.6362 13.8596C17.5713 12.8874 17.1985 12.0643 16.518 11.3904C15.8374 10.7162 15.011 10.3468 14.0388 10.282V8.33748C15.549 8.40223 16.834 8.96126 17.8938 10.0146C18.9535 11.0679 19.5157 12.3495 19.5805 13.8596H17.6362ZM23.2167 24.4958C20.9028 24.4958 18.5694 23.9562 16.2167 22.8771C13.8639 21.7979 11.6958 20.2666 9.7125 18.2833C7.72917 16.3 6.19792 14.1319 5.11875 11.7791C4.03958 9.42637 3.5 7.09304 3.5 4.77915C3.5 4.41242 3.62221 4.10686 3.86663 3.86244C4.11104 3.61802 4.41661 3.49581 4.78333 3.49581H9.08046C9.35268 3.49581 9.58932 3.59138 9.79038 3.78252C9.99124 3.97386 10.124 4.20884 10.1888 4.48748L10.9652 8.29169C11.0051 8.58141 10.999 8.83652 10.9471 9.05702C10.8954 9.27733 10.7902 9.46672 10.6315 9.62519L7.74871 12.5375C8.21538 13.3477 8.72579 14.1109 9.27996 14.8271C9.83413 15.5432 10.445 16.2254 11.1125 16.8737C11.7931 17.5671 12.5093 18.2039 13.2612 18.7841C14.0129 19.3641 14.8036 19.881 15.6333 20.3346L18.3945 17.5154C18.5824 17.3143 18.8085 17.1733 19.073 17.0924C19.3376 17.0114 19.5976 16.9903 19.8529 17.0291L23.5083 17.807C23.7936 17.8848 24.0301 18.0358 24.218 18.26C24.406 18.4842 24.5 18.735 24.5 19.0125V23.2125C24.5 23.5792 24.3778 23.8848 24.1334 24.1292C23.889 24.3736 23.5834 24.4958 23.2167 24.4958ZM6.79583 10.7291L9.0125 8.49294L8.4 5.44035H5.45417C5.5125 6.25041 5.6454 7.08652 5.85287 7.94869C6.06015 8.81066 6.37447 9.73748 6.79583 10.7291ZM17.4513 21.2679C18.2357 21.6246 19.0702 21.913 19.955 22.1333C20.8397 22.3536 21.7065 22.4865 22.5555 22.532V19.5958L19.6388 19.0029L17.4513 21.2679Z" fill="#4C4C4C"/>
</g>
</svg>
